<?xml version='1.0' encoding='utf-8'?>
<svg xmlns:xlink="http://www.w3.org/1999/xlink" xmlns="http://www.w3.org/2000/svg" id="svg1744" version="1.1" viewBox="0 0 507.99999 285.75001" height="1080" width="1920"> <defs id="defs1738"> <linearGradient y2="138.25" x2="1058.3334" y1="402.83334" x1="555.625" gradientTransform="translate(-3981.3077,8621.1831)" gradientUnits="userSpaceOnUse" id="linearGradient1864" xlink:href="#linearGradient964"/> <linearGradient id="linearGradient964"> <stop id="stop960" offset="0" style="stop-color:#f2f2f2;stop-opacity:1;"/> <stop id="stop962" offset="1" style="stop-color:#f2f2f2;stop-opacity:1"/> </linearGradient> </defs> <metadata id="metadata1741"> </metadata> <g transform="translate(0,-11.249992)" id="layer1"> <g id="g1984" transform="translate(3399.2244,-8699.6323)"> <rect y="8710.75" x="-3399.2244" height="285.75" width="508" id="rect1862" style="color:#000000;clip-rule:nonzero;display:inline;overflow:visible;visibility:visible;opacity:1;isolation:auto;mix-blend-mode:normal;color-interpolation:sRGB;color-interpolation-filters:linearRGB;solid-color:#000000;solid-opacity:1;fill:url(#linearGradient1864);fill-opacity:1;fill-rule:nonzero;stroke:none;stroke-width:0.079375;stroke-linecap:round;stroke-linejoin:round;stroke-miterlimit:4;stroke-dasharray:none;stroke-dashoffset:0;stroke-opacity:1;color-rendering:auto;image-rendering:auto;shape-rendering:auto;text-rendering:auto;enable-background:accumulate"/> <path style="opacity:0.1;fill:#000000;fill-rule:evenodd;stroke:#000000;stroke-width:0.99999994px;stroke-linecap:butt;stroke-linejoin:miter;stroke-opacity:1" d="m -11748.846,33269.783 -435.918,379.467 353.27,353.27 h 904.031 v -258.512 z" transform="scale(0.26458333)" id="path1976"/> <path id="path1909" d="m -3130.944,8795.6522 a 39.509581,39.509581 0 0 0 -32.3433,16.8524 29.820068,29.820068 0 0 0 -10.6365,-1.9981 29.820068,29.820068 0 0 0 -29.8199,29.8207 29.820068,29.820068 0 0 0 0.1706,2.9036 34.224121,34.224121 0 0 0 -31.9055,34.1422 34.224121,34.224121 0 0 0 33.8779,34.2067 l -0.015,0.018 h 0.3542 106.7816 a 39.509581,39.509581 0 0 0 39.5097,-39.5097 39.509581,39.509581 0 0 0 -36.5649,-39.3622 39.509581,39.509581 0 0 0 -39.4231,-37.0734 z" style="color:#000000;clip-rule:nonzero;display:inline;overflow:visible;visibility:visible;opacity:1;isolation:auto;mix-blend-mode:normal;color-interpolation:sRGB;color-interpolation-filters:linearRGB;solid-color:#000000;solid-opacity:1;fill:#5599ff;fill-opacity:1;fill-rule:nonzero;stroke:none;stroke-width:0.6844824;stroke-linecap:round;stroke-linejoin:round;stroke-miterlimit:4;stroke-dasharray:none;stroke-dashoffset:0;stroke-opacity:1;color-rendering:auto;image-rendering:auto;shape-rendering:auto;text-rendering:auto;enable-background:accumulate"/> </g> </g> </svg>