<svg width="155" height="30" viewBox="0 0 155 30" fill="none" xmlns="http://www.w3.org/2000/svg">
<g clip-path="url(#clip0)">
<path d="M64.7594 4.29126L62.6678 5.84626C61.728 4.83428 60.6751 4.33005 59.4879 4.33005C58.7865 4.30609 58.0882 4.43464 57.4415 4.70681C56.7949 4.97897 56.2152 5.38823 55.7428 5.90621C54.7741 6.97746 54.2587 8.38146 54.3048 9.8237C54.2446 11.3233 54.7588 12.7896 55.7428 13.9245C56.2088 14.453 56.7864 14.8719 57.4339 15.1511C58.0814 15.4304 58.7829 15.563 59.4879 15.5395C60.7881 15.5395 61.9187 14.9119 62.8692 13.6707L65.088 15.275C63.7807 17.0945 61.9081 18.0113 59.4597 18.0113C57.1207 18.0113 55.2081 17.2708 53.7218 15.7899C52.2355 14.3089 51.4924 12.3778 51.4924 9.99647C51.4924 7.55407 52.2355 5.58416 53.7218 4.08675C55.2081 2.58933 57.1207 1.8465 59.4597 1.85825C60.4706 1.83245 61.4741 2.03835 62.3928 2.46014C63.3116 2.88192 64.1212 3.50834 64.7594 4.29126V4.29126ZM66.9111 17.6199V2.23907H69.5963V15.1446H76.009V17.6128L66.9111 17.6199ZM77.1573 9.99647C77.1573 7.55407 77.9004 5.58416 79.3867 4.08675C80.873 2.58933 82.7892 1.8465 85.1352 1.85825C87.5059 1.80536 89.4386 2.53174 90.9331 4.01622C92.4276 5.50071 93.159 7.46122 93.159 9.90127C93.159 12.2849 92.4159 14.2196 90.9296 15.7052C89.435 17.1897 87.5024 17.9478 85.1316 17.9972C82.7609 18.0465 80.8706 17.2602 79.3832 15.7757C77.8957 14.2913 77.1538 12.3731 77.1538 9.98238L77.1573 9.99647ZM79.9838 9.8237C79.9269 11.3229 80.4406 12.788 81.4218 13.9245C81.9037 14.4346 82.485 14.8409 83.1299 15.1187C83.7748 15.3964 84.4699 15.5397 85.1723 15.5397C85.8747 15.5397 86.5697 15.3964 87.2146 15.1187C87.8596 14.8409 88.4408 14.4346 88.9227 13.9245C89.9099 12.7908 90.4278 11.3246 90.3713 9.8237C90.4169 8.37897 89.8959 6.97351 88.9192 5.90621C88.432 5.40722 87.8496 5.01063 87.2064 4.73984C86.5632 4.46905 85.8721 4.32955 85.174 4.32955C84.4759 4.32955 83.7849 4.46905 83.1417 4.73984C82.4985 5.01063 81.9161 5.40722 81.4289 5.90621C80.4631 6.97918 79.9481 8.38199 79.9909 9.8237H79.9838ZM107.822 2.23907V11.9746C107.822 13.8011 107.249 15.2574 106.108 16.3575C104.907 17.4228 103.355 18.0112 101.748 18.0112C100.141 18.0112 98.5897 17.4228 97.3882 16.3575C96.247 15.2574 95.6711 13.8011 95.6711 11.9746V2.23907H98.3598V11.8829C98.3497 12.7663 98.6385 13.6273 99.1795 14.3265C99.7272 15.0317 100.593 15.409 101.748 15.409C102.903 15.409 103.769 15.0564 104.313 14.3265C104.857 13.6284 105.147 12.767 105.136 11.8829V2.23907H107.822ZM111.125 17.6199V2.23907H117.071C119.074 2.19211 121.019 2.90686 122.513 4.23837C123.996 5.57123 124.753 7.47179 124.753 9.93301C124.77 11.1105 124.515 12.2761 124.007 13.3392C123.574 14.2881 122.918 15.119 122.096 15.7616C121.321 16.3543 120.458 16.8208 119.538 17.1439C118.642 17.4554 117.702 17.6162 116.753 17.6199H111.125ZM113.81 15.1516H115.81C117.637 15.1516 119.11 14.7285 120.241 13.8681C121.371 13.0078 121.937 11.7102 121.937 9.94005C121.937 8.16996 121.424 6.83357 120.4 5.98731C119.375 5.14104 118.001 4.72497 116.255 4.72497H113.8L113.81 15.1516ZM127.498 17.6199H129.289V10.7123H136.317V9.01622H129.279V3.93512H136.843V2.23907H127.487L127.498 17.6199ZM139.352 17.6199H141.118V2.23907H139.352V17.6199ZM154.989 2.23907H143.224V3.93512H148.22V17.6199H150.004V3.93512H154.989V2.23907Z" fill="white"/>
<path d="M61.1132 22.3554L60.4277 23.0924C60.2427 22.8759 59.987 22.7317 59.7058 22.6853C59.4245 22.6388 59.1358 22.6931 58.8908 22.8385C58.8081 22.8934 58.741 22.9687 58.6958 23.057C58.6506 23.1453 58.629 23.2437 58.6329 23.3427C58.6322 23.4229 58.65 23.5021 58.6849 23.5742C58.7199 23.6464 58.771 23.7095 58.8343 23.7588C58.9659 23.8771 59.1213 23.9661 59.2901 24.0198C59.4667 24.0797 59.6752 24.1537 59.8942 24.2243C60.106 24.2943 60.3116 24.3816 60.509 24.4852C60.6988 24.6029 60.8556 24.7666 60.9648 24.9612C61.0883 25.2008 61.1491 25.4677 61.1414 25.737C61.1576 25.9769 61.1168 26.2173 61.0222 26.4385C60.9277 26.6597 60.7821 26.8555 60.5973 27.0099C60.1999 27.3137 59.7092 27.4707 59.2088 27.4542C58.8849 27.4729 58.561 27.4171 58.262 27.2912C57.9631 27.1652 57.6971 26.9725 57.4846 26.7278L58.1913 26.0226C58.3023 26.2011 58.4591 26.3469 58.6454 26.4449C58.8317 26.5428 59.0408 26.5893 59.2512 26.5797C59.4773 26.5841 59.699 26.5161 59.8836 26.3858C59.9734 26.3268 60.0468 26.246 60.0968 26.1511C60.1469 26.0561 60.172 25.95 60.1698 25.8427C60.1706 25.696 60.1221 25.5532 60.032 25.4372C59.9369 25.325 59.8156 25.2378 59.6787 25.1834C59.5303 25.1234 59.3607 25.0635 59.1841 25.0035C59.0074 24.9436 58.8308 24.8625 58.6576 24.8025C58.4824 24.7351 58.3163 24.6463 58.163 24.5381C58.0083 24.4234 57.8865 24.2702 57.8097 24.0938C57.7145 23.881 57.6674 23.6498 57.6719 23.4168C57.6591 23.1851 57.7048 22.9539 57.8048 22.7445C57.9048 22.535 58.0559 22.3539 58.2442 22.2179C58.6442 21.9286 59.1284 21.7787 59.6222 21.7913C59.8983 21.778 60.1742 21.8205 60.4335 21.9162C60.6927 22.0119 60.9299 22.1589 61.1308 22.3484L61.1132 22.3554ZM65.0951 24.6474C65.0793 24.2674 65.1406 23.8882 65.2754 23.5325C65.4102 23.1768 65.6156 22.852 65.8794 22.5776C66.144 22.3183 66.4586 22.1155 66.8043 21.9815C67.1499 21.8475 67.5192 21.7852 67.8898 21.7983C68.2628 21.7745 68.6367 21.8298 68.9869 21.9604C69.337 22.0911 69.6555 22.2942 69.9214 22.5564C70.4262 23.1206 70.7052 23.8505 70.7052 24.6068C70.7052 25.3632 70.4262 26.0931 69.9214 26.6573C69.6526 26.9179 69.3345 27.1225 68.9858 27.2593C68.637 27.3962 68.2645 27.4624 67.8898 27.4542C67.519 27.4696 67.149 27.4083 66.803 27.2742C66.457 27.1401 66.1426 26.9361 65.8794 26.6749C65.6172 26.4081 65.4124 26.0906 65.2775 25.742C65.1426 25.3933 65.0805 25.0209 65.0951 24.6474ZM66.0879 24.5875C66.0705 25.1124 66.2465 25.6254 66.5825 26.0296C66.7535 26.206 66.9583 26.3463 67.1847 26.442C67.4111 26.5378 67.6545 26.5872 67.9004 26.5872C68.1463 26.5872 68.3897 26.5378 68.6161 26.442C68.8425 26.3463 69.0473 26.206 69.2183 26.0296C69.5582 25.6275 69.7359 25.1133 69.7164 24.5875C69.7302 24.0815 69.5494 23.5895 69.2112 23.2123C69.0386 23.04 68.8337 22.9033 68.6082 22.8101C68.3827 22.7168 68.141 22.6688 67.8969 22.6688C67.6528 22.6688 67.411 22.7168 67.1855 22.8101C66.96 22.9033 66.7551 23.04 66.5825 23.2123C66.2518 23.5932 66.0754 24.0836 66.0879 24.5875V24.5875ZM74.8572 27.3237V21.9394H78.2667V22.7997H75.7935V24.2102H78.1218V25.0776H75.7935V27.3202L74.8572 27.3237ZM83.4816 27.3237V22.7997H81.8529V21.9394H86.0255V22.7997H84.4073V27.3237H83.4816ZM90.9331 27.3237L89.3573 21.9394H90.3784L91.3712 25.8181H91.3924L92.5831 21.9394H93.4946L94.6641 25.8181H94.6853L95.7241 21.9394H96.6074L95.1411 27.3237H94.2472L93.0177 23.2229H93.0389L91.8199 27.3131L90.9331 27.3237ZM99.7448 27.3237L102.045 21.9394H102.858L105.136 27.3237H104.055L103.571 26.0896H101.285L100.798 27.3237H99.7448ZM101.6 25.2645H103.243L102.419 23.0712L101.6 25.2645ZM108.981 27.3237V21.9394H110.825C111.028 21.9367 111.231 21.9508 111.433 21.9817C111.614 22.0033 111.791 22.0545 111.955 22.1333C112.122 22.1942 112.274 22.2904 112.401 22.4154C112.53 22.5391 112.63 22.6912 112.69 22.8597C112.763 23.0572 112.801 23.2662 112.8 23.4767C112.811 23.8325 112.698 24.1812 112.482 24.464C112.253 24.7313 111.931 24.9015 111.581 24.9401L112.977 27.3237H111.846L110.616 25.0423H109.934V27.3237H108.981ZM109.924 24.2137H110.659C110.767 24.2196 110.876 24.2196 110.984 24.2137C111.084 24.2041 111.183 24.1877 111.281 24.1643C111.38 24.1402 111.475 24.0984 111.56 24.0409C111.636 23.9826 111.697 23.9063 111.736 23.8188C111.782 23.7143 111.806 23.6015 111.807 23.4873C111.813 23.3523 111.778 23.2185 111.708 23.103C111.648 23.0034 111.558 22.9256 111.45 22.8808C111.341 22.8422 111.228 22.8116 111.115 22.7891C110.989 22.7757 110.863 22.7686 110.736 22.768H109.924V24.2137ZM116.941 27.3237V21.9394H120.439V22.7997H117.891V24.122H120.322V24.9894H117.891V26.4528H120.587V27.3237H116.941Z" fill="white"/>
<path fill-rule="evenodd" clip-rule="evenodd" d="M25.4423 17.6199V18.0747C25.4423 18.0747 27.8413 14.3688 31.7172 12.158C37.4833 8.86458 44.7899 10.7475 47.2949 17.2849C50.0013 24.3829 43.6205 28.6671 37.3738 29.725C36.4959 29.8695 35.6096 29.9579 34.7204 29.9894C27.594 30.201 21.7643 27.7362 17.2065 22.1826C17.2065 22.1826 18.3371 25.8392 21.2414 28.2511C18.8397 28.9211 16.3231 29.0761 13.8571 28.7059C11.5393 28.3533 9.17915 27.3836 6.97798 26.3223C3.0915 24.4464 -0.0883481 22.1439 -1.8968e-05 18.1735C0.0902702 16.5057 0.663431 14.8999 1.64997 13.5508C5.53645 7.90902 17.5492 1.20944 24.2622 0.130457C24.9209 0.0248811 25.5884 -0.0152763 26.2549 0.0105713C29.8729 0.169246 34.6003 1.61494 34.6003 5.62411C34.6003 9.63327 29.7139 8.5014 26.2549 7.73976C22.796 6.97813 13.7157 7.36599 9.57486 13.4027C9.57486 13.4027 19.337 6.7313 27.9897 12.2849C27.9897 12.2849 26.0147 13.7271 25.4706 17.6058L25.4423 17.6199Z" fill="white"/>
</g>
<defs>
<clipPath id="clip0">
<rect width="155" height="30" fill="white"/>
</clipPath>
</defs>
</svg>
