<?xml version="1.0" encoding="utf-8"?>
<!-- Generator: Adobe Illustrator 23.0.6, SVG Export Plug-In . SVG Version: 6.00 Build 0)  -->
<svg version="1.1" id="Layer_1" xmlns="http://www.w3.org/2000/svg" xmlns:xlink="http://www.w3.org/1999/xlink" x="0px" y="0px"
	 viewBox="0 0 1132 690" style="enable-background:new 0 0 1132 690;" xml:space="preserve">
<style type="text/css">
	.st0{fill:#263B94;}
</style>
<g transform="translate(0.000000,690.000000) scale(0.100000,-0.100000)">
	<path class="st0" d="M5963,6884c-333-40-991-215-1488-394c-1164-421-2252-1061-3175-1868c-294-258-745-725-937-972
		c-176-226-293-479-339-731c-23-128-23-362,0-489c66-365,293-725,626-994c218-176,682-461,1050-645c565-282,1095-447,1640-511
		c151-17,565-23,810-11c124,6,347,16,495,22c149,7,272,13,274,15s-184,296-414,653s-418,653-418,658c-1,4,18,21,40,37
		c56,39,82,31,152-47C5135,658,6110,157,7365,23c213-22,915-26,1145-5c710,64,1011,143,1515,395c490,245,802,496,1020,822
		c270,403,335,839,209,1403c-180,805-696,1382-1481,1652c-771,266-1550,190-2250-221c-382-225-664-471-1175-1026
		c-148-161-273-293-277-293c-5,0-30,12-56,26c-32,18-45,32-42,43c2,9,125,308,271,664c147,357,266,650,264,652
		c-11,10-168,84-285,133c-837,358-1727,372-2788,46c-273-84-699-247-990-378c-54-25-101-43-103-41c-11,11,74,137,125,186
		c174,167,489,397,755,550c462,265,972,441,1503,519c265,39,356,45,720,45c376,0,480-7,800-51c564-78,677-87,1145-87
		c303,0,364,2,420,17c169,44,276,164,331,371c29,109,37,349,16,452c-58,272-225,457-613,676c-285,161-619,272-944,312
		C6447,6904,6120,6903,5963,6884z"/>
</g>
</svg>
