<?xml version="1.0" encoding="utf-8"?>
<!-- Generator: Adobe Illustrator 23.0.6, SVG Export Plug-In . SVG Version: 6.00 Build 0)  -->
<svg version="1.1" id="Layer_1" xmlns="http://www.w3.org/2000/svg" xmlns:xlink="http://www.w3.org/1999/xlink" x="0px" y="0px"
	 viewBox="0 0 500 500" style="enable-background:new 0 0 500 500;" xml:space="preserve">
<style type="text/css">
	.st0{fill:#26485F;}
	.st1{fill:#717271;}
	.st2{fill:#8D8D8D;}
	.st3{fill:#EEEEEE;}
	.st4{fill:#454745;}
	.st5{fill:#FFFFFF;}
	.st6{fill:#B7E4FF;}
</style>
<ellipse id="XMLID_219_" transform="matrix(0.7071 -0.7071 0.7071 0.7071 -106.3088 242.5099)" class="st0" cx="239.6" cy="249.6" rx="228.6" ry="228.6"/>
<g id="XMLID_268_">
	<g id="XMLID_269_">
		<path id="XMLID_277_" class="st1" d="M279.2,433.2H64c-3.5,0-7.4-6.8-7.4-10.3l1-344.4c0-3.5,2.9-6.4,6.4-6.4h215.2
			c3.5,0,6.4,2.9,6.4,6.4v348.3C285.6,430.3,282.8,433.2,279.2,433.2z"/>
		<path id="XMLID_273_" class="st2" d="M282.5,429.3H59.7c-1.7,0-3.1-1.4-3.1-3.1V71.3c0-1.7,1.4-3.1,3.1-3.1h222.8
			c1.7,0,3.1,1.4,3.1,3.1v354.9C285.6,427.9,284.2,429.3,282.5,429.3z"/>
		<path id="XMLID_272_" class="st3" d="M266.7,398.4H77.1c-1.7,0-3.1-1.4-3.1-3.1V96.7c0-1.7,1.4-3.1,3.1-3.1h189.6
			c1.7,0,3.1,1.4,3.1,3.1v298.7C269.8,397,268.4,398.4,266.7,398.4z"/>
		<path id="XMLID_271_" class="st4" d="M190.8,418.5h-37.7c-2.4,0-4.4-2-4.4-4.4l0,0c0-2.4,2-4.4,4.4-4.4h37.7c2.4,0,4.4,2,4.4,4.4
			l0,0C195.2,416.5,193.2,418.5,190.8,418.5z"/>
		<path id="XMLID_270_" class="st5" d="M190.8,416.7h-37.7c-2.4,0-4.4-2-4.4-4.4l0,0c0-2.4,2-4.4,4.4-4.4h37.7c2.4,0,4.4,2,4.4,4.4
			l0,0C195.2,414.7,193.2,416.7,190.8,416.7z"/>
	</g>
</g>
<g id="XMLID_229_">
	<path id="XMLID_235_" class="st6" d="M179.7,245c9-5.9,15.9-14.2,21.1-22.5c1-1.6,1.1-3.6,0.2-5.3c-6.2-11.9-10.2-24.9-11.5-38.7
		c-6.2-67.8,55.7-129,138.3-136.5c82.6-7.5,154.6,41.3,160.8,109.2c6.2,67.8-55.7,129-138.3,136.5c-42,3.8-81.3-7-110.6-27.4
		c-1.3-0.9-2.9-1.2-4.4-0.8c-23.9,5.9-43.9-0.2-54.9-5.1C176.5,252.6,176.2,247.3,179.7,245z"/>
	<g id="XMLID_230_">
		<circle id="XMLID_234_" class="st5" cx="341.3" cy="112" r="18.4"/>
		<g id="XMLID_231_">
			<path id="XMLID_232_" class="st5" d="M370.2,202.4c2.3,1,3.5,2,3.5,3c0,2.3-3.8,6.9-11.3,13.7c-10.1,9.2-19.5,13.9-28.1,13.9
				c-6.3,0-9.5-3.1-9.5-9.3c0-2.6,1.3-10.7,3.9-24.2l5.1-26.1l1.3-6.6l1-5.3c0.4-2.2,0.6-4.1,0.6-5.7c0-3.2-1.2-4.8-3.6-4.8
				c-6.7,0-13.9,5.5-21.7,16.4c-1.6-1.1-2.5-2.2-2.5-3.3c0-3.9,4.9-9.2,14.6-15.8c9.7-6.6,17.5-9.9,23.3-9.9c6.5,0,9.7,3.3,9.7,10
				c0,1.3-0.3,3.9-1,7.9l-1.2,6.4c-0.1,0.5-0.6,3.1-1.4,7.8l-5.3,27.5l-1.3,6.1c-1.1,6.1-1.7,10.2-1.7,12.2c0,2.8,1.1,4.1,3.2,4.1
				C355.1,220.4,362.5,214.4,370.2,202.4z"/>
		</g>
	</g>
</g>
</svg>
