<?xml version="1.0" encoding="utf-8"?>
<!-- Generator: Adobe Illustrator 23.0.6, SVG Export Plug-In . SVG Version: 6.00 Build 0)  -->
<svg version="1.1"
	 id="svg2985" inkscape:version="0.48.5 r10040" sodipodi:docname="A.svg" xmlns:cc="http://creativecommons.org/ns#" xmlns:dc="http://purl.org/dc/elements/1.1/" xmlns:inkscape="http://www.inkscape.org/namespaces/inkscape" xmlns:rdf="http://www.w3.org/1999/02/22-rdf-syntax-ns#" xmlns:sodipodi="http://sodipodi.sourceforge.net/DTD/sodipodi-0.dtd" xmlns:svg="http://www.w3.org/2000/svg"
	 xmlns="http://www.w3.org/2000/svg" xmlns:xlink="http://www.w3.org/1999/xlink" x="0px" y="0px" viewBox="0 0 1000 684.2"
	 style="enable-background:new 0 0 1000 684.2;" xml:space="preserve">
<style type="text/css">
	.st0{fill:#616161;}
</style>
<sodipodi:namedview  bordercolor="#666666" borderopacity="1" fit-margin-bottom="0.5" fit-margin-left="0.5" fit-margin-right="0.5" fit-margin-top="0.5" gridtolerance="10" guidetolerance="10" id="namedview2987" inkscape:current-layer="g2993" inkscape:cx="800.51408" inkscape:cy="136.4347" inkscape:pageopacity="0" inkscape:pageshadow="2" inkscape:window-height="1005" inkscape:window-maximized="0" inkscape:window-width="1047" inkscape:window-x="865" inkscape:window-y="15" inkscape:zoom="0.3761995" objecttolerance="10" pagecolor="#ffffff" showgrid="false">
	</sodipodi:namedview>
<g id="g2993" transform="matrix(1.25,0,0,-1.25,-1250.3381,2253.8496)" inkscape:groupmode="layer" inkscape:label="CreditsMO">
	<path id="path3" inkscape:connector-curvature="0" class="st0" d="M1362,1747.2c3.6,0,5.9,3.6,8.1,9.2c2.9,6.9,16.6,19.7,35.4,19.7
		c14.3,0,28.3-8.9,39.6-18.1c10.7-8.9,19.5-9.2,19.5-13.1c0-1.3-2.3-2.3-4.9-2.3c-10.7,0-29.5,16.1-49.7,16.1
		c-22.7,0-41.3-19.7-41.3-30.9c0-3.3,1.3-5.9,5.5-5.9c4.9,0,10.4,11.8,23.1,11.8c11.7,0,21.4-11.2,37.7-8.9c2,0.3,2.6-2.6,1.3-3.3
		c-32.5-18.4-66.9-35.8-66.9-94c0-44.7,25-87.7,80.2-87.7c57.5,0,85.1,37.5,85.1,87.7c0,43.4-26.3,83.4-61.7,83.4
		c-1.3,0-2.6,0-3.9-0.3c-2.3-0.6-4.2-2.6-4.2-5.6c0-3.6,1-4.6,3.3-6.2c22.7-16.1,30.6-31.9,30.6-75.6c0-30.9-12.7-65.2-44.5-65.2
		c-34.4,0-49,36.9-49,70.1c0,38.4,9.8,56.5,33.8,74.6c26,19.7,56.8,28.9,56.8,47c0,8.9-9.4,10.5-15.6,10.8
		c-5.5,0.3-13.3,2.3-17.2,7.9c-15.9,16.8-34.4,34.2-56.5,34.2c-31.5,0-50-33.5-50-46C1356.5,1751.8,1357.5,1747.2,1362,1747.2
		L1362,1747.2z"/>
	<path id="path5" inkscape:connector-curvature="0" class="st0" d="M1676.5,1697.8h5c1.5,0,3.5-1.5,4-3.8c0.7-2,1-3.3,1-9.8v-112.4
		c0-6.8-0.2-8.1-1-10c-0.5-1.8-2.2-3.3-4-3.3h-5c-3.5,0-6.2-3-6.2-6.8c0-5.5,2.7-7.3,11.2-7.3h97.5l4.7,0.3c3.9,0.2,5.2,1.2,6.9,5.5
		l7.2,16.8c1.5,3.5,2,5.8,2,7.1c0,3.5-2.5,6-6.5,6c-3.2,0-4.5-1-7.5-5.5c-5-7.3-9.7-11.1-15.4-12.1c-4.2-0.8-10.7-1-23.1-1
		c-13.2,0-18.1,0.5-21.4,1.8c-4,1.5-4.7,4.3-4.7,17.6v39.8c0,5.5,0.7,8,2.2,9.1c1.3,0.7,3,1,10.2,1h19.4c6.5,0,9.7,3,9.7,8.8
		c0,6-2.5,8.3-9.7,8.3h-31.8v32.2c0,13.3,1.5,15.1,15.2,15.1h16.7c15.7,0,20.4-1.8,25.4-9c1.7-2.3,2.7-3.8,3-4.3c1-1,2.3-2,3.5-2.5
		c0.7-0.5,1.7-0.8,2.7-0.8c3.8,0,6.7,2.8,6.7,5.8c0,0.8-0.5,2.3-1.3,4.3l-7.2,18.6c-1.5,3.8-3.5,5-8.7,5h-95.8
		c-8.5,0-11.5-1.8-11.5-7.3C1670,1701.1,1673,1697.8,1676.5,1697.8L1676.5,1697.8z"/>
	<path id="path7" inkscape:connector-curvature="0" class="st0" d="M1543.4,1697.8h4.7c1.7,0,3.7-1.3,4.2-3.3c0.7-2,1-3,1-9.8
		v-113.7c0-6.3-0.3-7.5-1-9.3c-0.5-1.8-2.5-3.3-4.2-3.3h-4.7c-3.5,0-6.2-3-6.2-6.8c0-5.5,2.7-7.3,10.9-7.3h95.8
		c7.7,0,9.7,1.3,12.2,7.5l7.7,19.1l1,2.8c0.5,1,0.8,2,0.8,3c0,3-3,5.5-6.7,5.5c-3,0-4.5-1-7.5-5.3c-6-8.6-9.2-11.8-13.4-13.6
		c-4.2-1.8-7-1.8-21.9-1.8c-17.2,0-21.9,0.3-24.4,2c-3,1.8-3.5,4.3-3.5,15.4v105.7c0,6.5,0,8,0.7,9.8c0.7,2,3,3.3,5.2,3.3h5.5
		c3.5,0,6.5,3,6.5,7c0,5.5-3,7.3-11.9,7.3h-46c-8.5,0-11.4-1.8-11.4-7.3C1536.7,1700.9,1539.7,1697.8,1543.4,1697.8L1543.4,1697.8z"
		/>
	<path id="path9" inkscape:connector-curvature="0" class="st0" d="M1503.1,1382.7c-0.3-5.8-0.7-6.3-8.5-7.5c-4.2-0.5-6.7-3-6.7-6.8
		c0-2,1.2-4.3,3-5.5c8.7-6.8,38.3-12.6,64.2-12.6c27.6,0,46.8,5.5,61.5,17.4c18.4,14.8,28.6,40,28.6,70.4c0,27.2-7.9,50.1-22.6,64.9
		c-15.2,15.6-35.6,22.4-65.4,22.4c-28.1,0-57.2-5.3-65.9-12.1c-2-1.5-3.2-3.8-3.2-6c0-3.8,2.7-6.3,7.5-6.5c6.7-0.5,7.4-1.5,7.7-8.1
		l0.3-5.5v-98.9L1503.1,1382.7L1503.1,1382.7z M1538.2,1483.8c0,14.3,0.5,17.4,3.7,19.9c3.7,3,11,5,18.7,5
		c29.6,0,47.2-26.2,47.2-70.4c0-44.3-17.7-69.9-48.2-69.9c-9.4,0-16.9,2.5-19.6,6.3c-1.5,2.5-1.7,4.5-1.7,14.6V1483.8L1538.2,1483.8
		z"/>
	<path id="path11" inkscape:connector-curvature="0" class="st0" d="M1665.1,1458.4c7.7-9.1,9.9-10.6,33.6-27.2
		c14.2-10.1,20.9-15.6,26.4-21.7c5.2-6,8-12.1,8-18.9c0-13.3-10.9-22.4-27.1-22.4c-14.2,0-28.1,7.6-36.8,19.9l-3.5,5
		c-1.5,2-3.7,3.3-6.2,3.3c-4.5,0-7.9-3.3-7.9-7.8c0-1.2,0.2-3.5,0.7-5l6.2-25.2c1.5-6,3.5-8.3,7.7-8.3c2.2,0,3.5,0.5,5.7,2.3
		c2.3,2,3.2,2.5,5.2,2.5c1.5,0,2-0.3,5.5-1.3c7.2-2.3,16.9-3.5,26.1-3.5c32.8,0,54.2,19.1,54.2,48.3c0,12.8-5,25.4-13.4,34.2
		c-7.9,8.3-14.4,13.3-34.1,27.2c-5.2,3.8-9.2,6.5-12.2,8.8c-5,3.8-9,7.8-11.4,11.6c-2,2.8-2.8,6.5-2.8,10.3
		c0,10.3,7.5,16.9,18.9,16.9c8.2,0,16.6-2.7,23.4-8c5.2-4,6.2-5,11.9-13.6c2.2-3.3,3.7-4.3,6.5-4.3c4.2,0,7.2,2.8,7.2,6
		c0,0.7,0,2.2-0.5,3.5l-6,27.2c-1,4.5-3.2,7.1-7,7.1c-2,0-2.7-0.2-5.2-2c-2.2-1.5-4-2.2-5.7-2.2c-1,0-2.2,0.2-3.5,0.5
		c-3.5,0.8-5.5,1.3-6.2,1.5c-7.2,1.5-14.4,2.3-21.4,2.3c-27.3,0-45.7-16.1-45.7-40.5C1655.6,1474.8,1658.8,1465.7,1665.1,1458.4
		L1665.1,1458.4z"/>
	<path id="path13" inkscape:connector-curvature="0" class="st0" d="M1113.7,1504.7c25.9,0,28.9-1,35.8-11.6c2.5-3.8,4.2-5.3,7-5.3
		c3.7,0,6.5,2.8,6.5,6c0,1-0.2,2-1,4l-6.5,17.1c-1.2,3-2.5,5-4,5.8c-1.3,0.8-2,1-6,1h-91.3c-8.2,0-10.9-1.8-10.9-7.3
		c0-3.8,2.5-7.1,6-7.1h5c1.7,0,3.5-1.3,4.2-3.3c0.5-1.8,0.7-3.3,0.7-9.8v-112.9c0-6.8-0.3-8.1-0.7-9.8c-0.7-2-2.5-3.3-4.2-3.3h-5
		c-3.5,0-6.5-3.3-6.5-7c0-5.5,3-7.3,11.4-7.3h45.8c9.2,0,12.2,1.8,12.2,7.3c0,3.8-2.7,7-6.5,7h-5.7c-2,0-4.2,1.2-5.2,3.3
		c-0.8,1.8-0.8,3-0.8,9.8v50.1c0,5.3,0.3,6.8,2,7.5c1,0.5,2.2,0.8,3.5,0.8h25.4c7,0,10.7,3,10.7,8.6c0,5.8-3.5,8.5-10.7,8.5h-30.9
		v37.5C1094.1,1504.2,1095.6,1504.7,1113.7,1504.7L1113.7,1504.7z"/>
	<path id="path15" inkscape:connector-curvature="0" class="st0" d="M1750.9,1333.8h-693c-21.2,0-38.4-17.4-38.4-38.8
		c0-21.4,17.2-38.8,38.4-38.8h693c21.2,0,38.4,17.4,38.4,38.8C1789.3,1316.4,1772.1,1333.8,1750.9,1333.8z M1152.1,1280.9
		c0.1-0.7,1-1.2,1.7-1.2h1.6c1.3,0,2.5-1.4,2.5-2.8c0-1.9-1-2.7-4.1-2.7h-17.9c-3.2,0-4.4,0.8-4.4,2.7c0,1.5,1.2,2.8,2.7,2.8h1.7
		c0.8,0,1.5,0.4,1.8,1.2c0.3,0.8,0.3,1.2,0.3,3.9v20.1l-16.1-15.8c-1-1-2.1-1.6-3.2-1.6c-1.2,0-1.7,0.4-2.9,1.6l-15.1,16.3v-20.6
		c0-2.5,0-3.1,0.3-3.9c0.2-0.8,0.9-1.2,1.7-1.2h1.9c1.5,0,2.7-1.4,2.7-2.8c0-1.9-1-2.7-4.6-2.7h-12.8c-3.1,0-4.4,0.8-4.4,2.7
		c0,1.5,1.3,2.8,2.7,2.8h1.7c0.8,0,1.4,0.4,1.7,1.2c0.3,0.6,0.4,1.5,0.4,3.9v22.5c0,2.6-0.1,3.3-0.4,4c-0.3,0.8-0.9,1.3-1.7,1.3
		h-1.7c-1.4,0-2.7,1.2-2.7,2.7c0,2,1.3,2.8,4.4,2.8h14.5c1.5,0,2.4-0.4,4.5-2.7l13.7-15.2l16,15.9c1.7,1.6,2.7,2,4.1,2h11.2
		c3,0,4.1-0.8,4.1-2.8c0-1.5-1.1-2.7-2.5-2.7h-2c-0.8,0-1.1-0.4-1.5-1.1c-0.3-0.6-0.3-1.6-0.3-4.2v-22.5
		C1151.6,1282.2,1151.6,1281.6,1152.1,1280.9L1152.1,1280.9z M1271.4,1274.2h-20.1c-1.9,0-2.9,1.1-2.9,2.7c0,1.9,1.1,2.5,3.6,2.9
		c2.2,0.4,2.3,1.6,1.5,3.6l-0.3,0.6c-0.5,1.3-1.2,1.4-3.4,1.4h-14.6c-1.5,0-2.2-0.1-2.6-0.3c-0.4-0.2-0.7-0.4-1-0.8l-0.2-0.5
		c-0.6-1.5,0.1-3.7,2.7-4c2.5-0.3,3.5-1,3.5-2.8c0-1.8-1.3-2.8-3.3-2.8h-15.9c-2.3,0-3.4,0.8-3.4,2.5c0,1.7,0.8,2.4,2.7,2.8
		c1.3,0.3,1.8,0.6,2.3,1.4c0.4,0.6,1.3,2.3,2.2,4l14.9,29.9c1.7,3.4,4.9,4.2,7.9,4.2c2.7,0,6.2-1,7.7-4.2l14.4-28.7
		c2.2-4.4,2.9-5.4,4.4-5.9l1.3-0.4c0.9-0.3,1.7-1.2,1.7-2.5C1274.7,1275.3,1273.6,1274.2,1271.4,1274.2L1271.4,1274.2z
		 M1388.8,1274.2h-11.9c-2.7,0-3.9,0.8-5.8,2.8l-13.4,15.2c-1.3,1.5-1.8,2.4-1.8,3c0,1.3,1.1,1.9,3.7,2.1c6.7,0.6,10.1,3,10.1,8.2
		c0,5.8-4.6,8.4-10.4,8.4c-2.2,0-4.4-0.4-5.6-1.3c-1-0.8-1.4-2.1-1.6-4.8l-0.2-3.1v-19.8c0-2.5,0-3.2,0.3-3.8
		c0.3-0.8,1.1-1.4,1.8-1.4h2c1.3,0,2.4-1.2,2.4-2.7c0-2.1-1.1-2.8-4.4-2.8h-17.8c-3.1,0-4.4,0.8-4.4,2.8c0,1.5,1.3,2.7,2.7,2.7h1.7
		c0.9,0,1.5,0.5,1.8,1.4c0.2,0.7,0.2,1.3,0.2,3.8v22c0,2.6-0.4,3.1-2.9,3.2c-1.9,0.1-3,1-3,2.7c0,0.8,0.5,1.8,1.1,2.4
		c3.1,2.5,15.2,3.7,24.7,3.7c16.4,0,25.4-4.2,25.4-12.3c0-5.6-2.5-10.2-11.3-11.8l8.5-9.4c3.2-3.5,5.4-4.7,8.1-5.2
		c1.9-0.5,2.2-0.6,2.7-0.9c0.6-0.3,1.2-1.2,1.2-2.2C1392.9,1275.3,1391.5,1274.2,1388.8,1274.2L1388.8,1274.2z M1474.1,1274.2h-17.8
		c-3.1,0-4.4,0.8-4.4,2.8c0,1.5,1.3,2.7,2.7,2.7h1.7c1,0,1.5,0.5,1.8,1.4c0.3,0.7,0.3,1.3,0.3,3.8v22.3c0,2.5-0.1,3.4-0.3,3.8
		c-0.3,0.7-0.9,1.3-1.8,1.3h-1.7c-1.4,0-2.7,1.2-2.7,2.8c0,2,1.3,2.8,4.4,2.8h17.8c3.3,0,4.4-0.8,4.4-2.8c0-1.7-1.1-2.8-2.5-2.8
		h-1.9c-0.8,0-1.3-0.5-1.7-1.3c-0.3-0.8-0.4-1.2-0.4-3.8v-22.3c0-1.7,0.1-3.3,0.6-4c0.5-0.7,0.9-1.1,1.5-1.1h1.9
		c1.2,0,2.5-1.2,2.5-2.7C1478.5,1275,1477.2,1274.2,1474.1,1274.2L1474.1,1274.2z M1512.1,1274.2h-12c-2.6,0-3.4,0.9-5.3,2.8
		l-17.5,17.5c-0.8,0.8-1.1,1.3-1.1,1.8c0,0.5,0.5,1.1,1.1,1.6l12.6,10.8c1.8,1.6,0.8,3.6-0.3,3.6c-1.1,0-1.8,1.1-1.8,3
		c0,1.7,0.9,2.8,3,2.8h20.2c2.1,0,3.2-0.8,3.2-2.7c0-1.6-0.8-2.4-3.2-2.8c-2.2-0.3-3.1-0.3-4.6-0.7c-1.4-0.4-3.3-1.5-4.5-2.5
		l-11.5-10l14.3-14.2c3.8-3.7,5.9-4.9,7.8-5.4c2.1-0.6,3.2-0.9,3.2-2.7C1515.7,1275.3,1514.4,1274.2,1512.1,1274.2L1512.1,1274.2z
		 M1625.2,1284l-3.3-8.3c-0.5-1.1-0.9-1.3-2.5-1.3l-1.9-0.1h-39c-3.3,0-4.4,0.8-4.4,2.8c0,1.5,1.1,2.7,2.4,2.7h2
		c0.6,0,1.3,0.6,1.5,1.4c0.4,0.6,0.5,1.3,0.5,3.8v22.1c0,2.5-0.1,3.2-0.5,3.9c-0.1,0.9-0.9,1.5-1.5,1.5h-2c-1.3,0-2.6,1.3-2.6,2.8
		c0,2,1.3,2.8,4.6,2.8h38.6c2,0,2.7-0.3,3.1-1.3l2.9-7.6c0.1-0.4,0.4-0.9,0.4-1.1c-0.2-0.8-1.8-1.5-3.2-1.5c-0.5,0-0.9,0-1.1,0.2
		c-0.5,0.1-0.9,0.4-1.2,0.6c-0.2,0.3-0.4,0.6-1,1.2c-1.6,1.9-4.4,3.9-10.6,3.9h-6.4c-5.4,0-6-0.5-6-4v-7.3h12.4c3,0,3.8-1.6,3.8-3.3
		c0-1.8-1.1-3.4-3.8-3.4h-7.6c-2,0-3.5,0.1-4-0.2c-0.5-0.4-0.8-1.1-0.8-2.6v-6.9c0-3.5,0.3-4.2,1.9-4.6c1.1-0.3,3.2-0.5,8.4-0.5
		c4.8,0,7.4,0.1,8.9,0.3c2.2,0.2,5.4,3.9,6.9,5.9c0.9,1.2,1.3,1.4,2.7,1.4c1.7,0,2.5-0.7,2.7-1.5
		C1625.6,1285.5,1625.6,1285,1625.2,1284L1625.2,1284z M1733.9,1305.8c-1,0-1.8,0.4-2.6,1.5c-0.5,0.6-0.6,0.7-0.8,0.9
		c-0.9,1.2-2.5,3.4-3.7,3.8c-1.1,0.4-2.5,0.5-6.1,0.5c-4.6,0-5.1-0.3-5.1-3.1v-24.4c0-2.5,0-3.1,0.2-3.8c0.3-0.8,1.1-1.4,1.9-1.4
		h2.6c1.5,0,2.6-1.2,2.6-2.7c0-2.1-1.1-2.8-4.7-2.8h-19.2c-3.4,0-4.6,0.8-4.6,2.8c0,1.5,1.2,2.7,2.5,2.7h2.9c0.6,0,1.4,0.5,1.7,1.4
		c0.3,0.7,0.4,1.3,0.4,3.8v24.4c0,2.7-0.4,3.1-6.1,3.1c-4.9,0-7.3-2-9-4.4l-0.5-0.7c-0.9-1.3-1.6-1.5-2.9-1.5
		c-1.4,0-3.3,0.7-3.4,1.5c0,0.2,0.1,0.9,0.3,1.4l2.9,7.6c0.6,1.6,1,1.7,3.3,1.7h44.5c1.5,0,1.5-0.1,2.2-0.3c0.3-0.1,0.5-0.6,0.9-1.3
		l3.2-8c0.1-0.4,0.3-0.8,0.3-1C1737.3,1306.5,1735.4,1305.8,1733.9,1305.8L1733.9,1305.8z"/>
	<path id="path17" inkscape:connector-curvature="0" class="st0" d="M1243.9,1304.2c-0.8,1.7-1.1,3-1.3,4.1h-0.4
		c-0.3-1-0.9-2.4-1.6-4.1l-4.8-10.8l-1-1.5l1.7,0.2h11.7l1.3-0.2l-0.8,1.5L1243.9,1304.2L1243.9,1304.2z"/>
	<path id="path19" inkscape:connector-curvature="0" class="st0" d="M1069.3,1553.3c3.5-9.6,7-12.5,14.2-12.5c3.2,0,6.5,1.2,8.4,2.8
		c2,2,2.7,3.8,5,9.8l24.4,68.9l22.9-68.9c3-9.3,6.7-12.5,14.2-12.5c7.5,0,10.7,3.5,14.4,15.8l39.5,129c2.8,8.8,4.5,11.2,9.7,12.3
		h1.4c1.8,0,3.5-1.3,4.2-3.3c0.7-1.8,0.7-3,0.7-9.8v-112.9c0-6.8,0-8-0.7-10c-0.5-1.8-2.5-3-4.2-3h-5c-3.5,0-6.5-3.3-6.5-7
		c0-5.5,3-7.3,11.4-7.3h45.3c8,0,10.7,1.8,10.7,7c0,4-2.5,7.3-6,7.3h-4.7c-2,0-4,1.3-4.7,3c-0.5,2-0.8,3.5-0.8,10v46
		c0,11.6,1,12.6,10.2,12.6h33.8c5,0,7.5-0.8,8.7-2.3c1.3-1.5,1.3-2.5,1.3-11.8v-44.5c0-6.5,0-8-0.7-10c-0.7-1.8-2.7-3-4.5-3h-4.7
		c-3.5,0-6.5-3.3-6.5-7c0-5.5,2.7-7.3,11.2-7.3h45.3c8.7,0,11.4,1.8,11.4,7.3c0,3.8-2.7,7-6.5,7h-5c-1.7,0-3.7,1.3-4.2,3
		c-0.7,2-1,3.5-1,10v112.9c0,6.3,0.2,8.1,1,9.8c0.5,1.8,2.5,3.3,4.2,3.3h5c3.5,0,6.5,3,6.5,7c0,5.5-3,7.3-11.4,7.3h-45.3
		c-8.4,0-11.4-1.8-11.4-7.3c0-4,3-7,6.7-7h4.7c1.7,0,3.7-1.3,4.5-3.3c0.7-1.8,0.7-3.3,0.7-9.8v-37.2h-54v37.2c0,6.3,0.2,8.1,0.8,9.8
		c0.7,1.8,2.7,3.3,4.7,3.3h4.7c3.5,0,6.2,3,6.2,7c0,5.5-2.7,7.3-10.9,7.3h-82.2c-6.7,0-9.4-2-9.4-7c0-4,2.5-6.5,7.9-7
		c6-0.7,8.7-2.8,8.7-6.5c0-1.5-0.3-3.5-1-6l-29.3-96.3l-29.6,92.1c-2,6-2.5,8.3-2.5,10.6c0,4.5,1.7,6,8.4,6.8c5.5,0.8,8,2.8,8,6.8
		c0,4.5-2.7,6.8-8.5,6.8h-48.7c-5.7,0-8.7-2.8-8.7-7.5c0-3.8,2-5.6,7.2-6.8c5.7-1.5,7.7-2.8,9.2-6.5c0.5-1,1-3,2-5.8l11.4-33.7
		l-23.1-65.1l-33.6,94.6l-2,5.8c-0.7,2-1,3.8-1,5.5c0,4,2.2,5.8,7.7,6.3c6.5,0.5,9,2.3,9,6.5c0,4.5-2.5,6.8-8.2,6.8h-51.2
		c-5.7,0-8.4-2.3-8.4-6.5c0-4,1.7-5.8,7-6.8c7.9-1.8,9.2-3,12.9-13.3L1069.3,1553.3L1069.3,1553.3z"/>
	<path id="path21" inkscape:connector-curvature="0" class="st0" d="M1239.8,1350.2c42.1,0,71.3,24,79.9,63.1
		c8.4-38.8,37.5-63.1,78.8-63.1c50.5,0,82.6,34.5,82.6,88.3c0,52.8-32.1,86.8-82.1,86.8c-41.6,0-70.6-23.8-79.1-62.8
		c-8.4,38.9-37.6,62.8-79.5,62.8c-50,0-81.8-34.2-81.8-88C1158.4,1384.7,1190.5,1350.2,1239.8,1350.2L1239.8,1350.2z M1398.7,1507.5
		c27.6,0,45-26.9,45-70.2c0-42.3-17.2-68.9-44.5-68.9c-28.1,0-44.8,25.6-44.8,68.7C1354.4,1480.8,1371.1,1507.5,1398.7,1507.5z
		 M1240,1507.5c27.6,0,45-26.9,45-70.2c0-42.3-17.2-68.9-44.5-68.9c-28.1,0-44.8,25.6-44.8,68.7
		C1195.7,1480.8,1212.4,1507.5,1240,1507.5z"/>
</g>
</svg>
