<?xml version="1.0" encoding="utf-8"?>
<!-- Generator: Adobe Illustrator 23.0.6, SVG Export Plug-In . SVG Version: 6.00 Build 0)  -->
<svg version="1.1" id="Layer_1" xmlns="http://www.w3.org/2000/svg" xmlns:xlink="http://www.w3.org/1999/xlink" x="0px" y="0px"
	 viewBox="0 0 1137 422" style="enable-background:new 0 0 1137 422;" xml:space="preserve">
<style type="text/css">
	.st0{fill:#616161;}
</style>
<g transform="translate(0.000000,422.000000) scale(0.100000,-0.100000)">
	<path class="st0" d="M0,2110V0h5685h5685v2110v2110H5685H0V2110z M11180,2110V190l-5492,2l-5493,3l-3,1918l-2,1917h5495h5495V2110z
		"/>
	<path class="st0" d="M980,3196v-54l43-7c23-3,57-9,75-12l32-5l-2-1007l-3-1006l-72-8l-73-9v-59v-59h380h380v59v59l-72,9l-73,8
		l-3,458l-2,457h500h500v-454c0-379-2-455-14-459c-8-3-46-9-85-13l-71-7v-58v-59h390h390v59v59l-67,7c-36,4-72,9-80,12
		c-11,4-13,184-13,1008v1003l40,6c22,3,58,9,80,12l40,6v54v54h-390h-390v-54v-54l48-6c26-4,64-9,85-12l37-6v-429v-429h-500h-500v429
		v429l43,7c118,18,107,11,107,71v54h-380H980V3196z"/>
	<path class="st0" d="M3789,3222c-208-108-125-422,111-422c71,0,126,26,172,79c75,88,75,204-1,292C4001,3254,3888,3274,3789,3222z"
		/>
	<path class="st0" d="M4570,3201v-49l68-8l67-9l3-1022l2-1021l-27-6c-16-3-47-8-70-11l-43-7v-49v-49h355h355v49v49l-42,7
		c-24,3-55,8-70,11l-28,6v1079v1079h-285h-285V3201z"/>
	<path class="st0" d="M5943,2996l-203-61v-172v-173h-155h-155v-75v-75h149h150l3-607c4-676,4-669,73-765c105-144,419-159,793-37
		l62,21v55v55l-30-7c-17-4-88-7-158-7c-182-1-240,21-284,110l-23,47l-3,568l-3,567h191h190v75v75h-190h-190v235c0,129-3,235-7,234
		C6148,3058,6054,3030,5943,2996z"/>
	<path class="st0" d="M7480,2634c-150-20-337-95-442-178c-123-98-222-254-268-421c-31-112-39-361-16-494c33-186,87-301,196-411
		c130-131,309-195,580-206c286-13,520,63,690,223c161,151,236,326,247,573c7,157-8,276-51,402c-44,131-86,198-181,293
		c-65,66-98,89-175,128c-131,64-232,87-405,92C7578,2637,7499,2636,7480,2634z M7660,2510c117-22,197-89,255-215
		c63-136,85-268,85-519c0-501-122-727-395-728c-99-1-171,27-232,91c-127,130-189,432-163,786c26,355,133,547,323,585
		C7592,2521,7601,2521,7660,2510z"/>
	<path class="st0" d="M9712,2619c-125-16-279-85-410-184c-40-30-78-55-83-55s-9,47-9,105v105h-285h-285v-54v-54l48-6
		c26-4,59-9,75-12l27-6v-683v-683l-57-6c-93-11-93-11-93-67v-49h360h360v50c0,28-3,50-7,51c-5,1-37,6-73,13l-65,11v580v580l50,33
		c28,18,86,47,130,64c69,28,92,32,170,33c99,0,145-17,197-72c79-83,90-176,86-763l-3-455l-65-11c-36-7-68-12-72-13c-5-1-8-23-8-51
		v-50h360h360v49c0,56,0,56-92,66l-57,7l-3,582c-3,576-4,582-27,651c-31,95-61,144-121,198c-59,53-134,84-234,97
		C9806,2631,9799,2631,9712,2619z"/>
	<path class="st0" d="M3540,2541v-49l48-6c26-4,59-9,75-12l27-6l-2-686l-3-687l-65-11c-36-7-68-12-72-13c-5-1-8-23-8-51v-50h361h360
		l-3,46c-4,55-11,61-90,69l-58,6v750v749h-285h-285V2541z"/>
</g>
</svg>
