<?xml version="1.0" encoding="utf-8"?>
<!-- Generator: Adobe Illustrator 23.0.6, SVG Export Plug-In . SVG Version: 6.00 Build 0)  -->
<svg version="1.1" id="layer" xmlns="http://www.w3.org/2000/svg" xmlns:xlink="http://www.w3.org/1999/xlink" x="0px" y="0px"
	 viewBox="0 0 652 212" style="enable-background:new 0 0 652 212;" xml:space="preserve">
<style type="text/css">
	.st0{fill:#616161;}
</style>
<path class="st0" d="M298.4,76.9c-9.8,0-19.1,3.8-23.2,6.7c-6.3-4.8-14.9-6.7-25.6-6.7c-16.2,0-29.6,5-31.5,5.8v83.7h17.4
	c1.7,0,3.1-1.4,3.1-3.3V95.9c3.7-1,7.1-1.5,10.1-1.5c12,0,15,4.8,15,16.8v52c0,1.5,1.2,3.3,3.1,3.3h14.4c2,0,3.1-1.5,3.1-3.3V98.6
	c3.2-2.8,7.8-4.1,12-4.1c9.3,0,13.1,4.2,13.1,15.6v53.2c0,1.4,1,3.3,3.1,3.3h17.4v-59.3C329.9,84.7,315.9,76.9,298.4,76.9
	 M25.4,166.4h18.4c1.4,0,3.1-1.3,3.1-3.1v-48.6h34c5.7,0,9.8,4.6,9.8,9.3v39.3c0,1.7,1.4,3.1,3.1,3.1h18.5V50.8H93.9
	c-1.6,0-3.1,1.4-3.1,2.9v43.4H55.4c-4.7,0-8.5-3.9-8.5-8.2V53.7c0-1.1-1.1-2.9-3.1-2.9H25.4V166.4z M571.7,145
	c-3.8,3.2-6.7,5.2-14.8,5.5c-11.5,0-16.4-7-16.4-22v-12.2c0-17.2,6.3-22,16.4-22c8.5,0,13.1,0.7,14.8,1.1V145z M556.9,77
	c-22.6,0-36.9,12.3-36.9,38.6v13.2c0,29.1,15.5,38.6,32.2,38.6c8.2,0,16.7-5.8,19.5-9.5v5.4c0,1.4,1.3,3.1,3.1,3.1h17.5V82
	C592.3,82,575.1,77,556.9,77 M395.9,145c-3.8,3.2-6.7,5.2-14.8,5.5c-11.5,0-16.4-7-16.4-22v-12.2c0-17.2,6.3-22,16.4-22
	c8.5,0,13.1,0.7,14.8,1.1V145z M381.1,77c-22.6,0-36.9,12.3-36.9,38.6v13.2c0,29.1,15.5,38.6,32.2,38.6c8.3,0,16.7-5.8,19.5-9.5v5.4
	c0,1.4,1.2,3.1,3.1,3.1h17.5V82C416.4,82,399.2,77,381.1,77 M450.9,166.4c1.7,0,3.2-1.4,3.2-3.3v-67c5.1-1.2,10.1-1.7,15.3-1.7
	c11.5,0,15.6,4.3,15.6,16.8v52c0,2.1,1.6,3.3,3.1,3.3h17.5V111c0-25.7-13.6-34.1-35.6-34.1c-17.6,0-35,5.1-36.4,5.5v84H450.9z
	 M183.6,78.5c-1.7,0-3.2,1.4-3.2,3.3v66.4c-5.1,1.2-10.1,1.7-15.3,1.7c-11.5,0-15.6-4.3-15.6-16.8V81.7c0-2.1-1.6-3.3-3.1-3.3h-17.5
	v54.8c0,25.7,13.6,34.1,35.6,34.1c17.6,0,35-5.1,36.4-5.5V78.4L183.6,78.5L183.6,78.5z M613.4,156.2h1.7c1.6,0,2.2-0.8,2.2-1.8
	c0-1.4-1.3-1.6-2.5-1.6h-1.4V156.2z M614.8,150.9c2.8,0,4.6,0.8,4.6,3.3c0,1.7-0.8,2.9-2.3,3.6l0.7,1.2c0.5,1,1.2,1.9,2.1,3.1
	c0.1,0.2-0.2,0.3-0.8,0.3h-0.7c-0.7,0-0.9-0.1-1-0.3c-0.6-0.8-1.1-1.5-1.5-2.3l-1-1.7h-1.5v4.1c0,0.1-0.2,0.3-0.7,0.3h-0.9
	c-0.4,0-0.7-0.1-0.7-0.3V151h3.7V150.9z M606.8,156.7c0,4.9,3.5,8.8,8.2,8.8c4.6,0,8.2-3.8,8.2-8.8c0-4.9-3.5-8.8-8.2-8.8
	C610.5,147.9,606.8,151.7,606.8,156.7 M625.4,156.7c0,5.9-4.5,10.6-10.3,10.6s-10.4-4.7-10.4-10.6s4.6-10.6,10.4-10.6
	C620.9,146.1,625.4,150.8,625.4,156.7"/>
</svg>
