<svg id="Layer_1" data-name="Layer 1" xmlns="http://www.w3.org/2000/svg" viewBox="0 0 3810.7 721.72"><defs><style>.cls-1{fill:#263a93;}.cls-2{fill:#424142;}</style></defs><title>Logo-Royal</title><path class="cls-1" d="M623.3,1.1c-35.2,2.1-67.5,8.7-97.8,20-7.1,2.6-21.3,7.8-31.5,11.4-105.7,38-209.1,89-289.2,142.7-45.2,30.3-77.7,56.6-111.9,90.8C47.5,311.2,21.1,348,9.5,382.5c-14.5,42.7-11.7,92.1,7.3,130,17,34.2,50,64.5,103.1,95,17.3,9.9,63.7,33.1,86.1,43,52.3,23.2,94.2,35.6,142.2,42.1,15.5,2.1,67.3,3,86.5,1.5,20.4-1.7,47.4-5.4,68.7-9.5,9.8-2,18-3.7,18.3-3.9s-5.2-6-11.9-12.8A360.35,360.35,0,0,1,443,575.5c-7-13.8-17.5-38.3-16.8-39.1.2-.2,4.3,4.4,9.2,10.1C447.7,561,479.5,592,497.5,607c34.1,28.5,72.7,56.4,86,62.2,27,11.9,67.4,25.1,101.5,33.2,129.1,30.8,248.7,25,340.3-16.5,53.5-24.2,96.6-59.9,122-100.9,20-32.4,30.9-74.3,27.7-106.3C1163.9,367.3,1074.4,272.6,963.6,255c-29.5-4.7-62.7-2.4-104.6,7.1-50.5,11.6-81.9,26.2-123.4,57.7-20.9,15.8-52.2,47.8-96.6,98.4-8,9.1-14.6,16.5-14.8,16.3-.7-.6,5-26,8.7-39,11.4-39.6,30.1-76.2,50.4-98.4l4-4.3-4.9-3.1c-8.1-5-28.2-15.3-39.4-20.1-93.9-39.9-207.8-35.6-329,12.6-16.9,6.7-60.7,27.7-74,35.4l-6.5,3.8,7.4-8.2c8.4-9.2,26.2-25.6,39.2-36C355.7,216.6,460.2,182,568,182c35.4,0,57.2,2.3,96,10,75.7,15.2,134.5,14,161.3-3.2,11.4-7.3,21.5-26.2,24.7-46.2,1.6-9.6.8-30.8-1.5-39.6-2.7-10.5-10.6-25.7-17-32.7-6.2-6.9-21.5-19.5-32.7-27.1Q743.3,5.85,664.5,1C645.8-.1,642.6-.1,623.3,1.1Z" transform="translate(-0.3 -0.19)"/><path class="cls-2" d="M1439.5,43.7c-28.3,2.4-53.8,9-76,19.8-56.2,27.1-92.4,79.5-101,145.8-2,15.5-2,46,0,61.4,9.7,74,55,129.9,123.8,152.8,23.8,7.9,43.2,10.9,71.2,10.9,56.1-.1,99.2-18.7,132.2-57.3,3.5-4.1,6.3-8,6.3-8.7,0-1.4-53.6-39.7-54.9-39.2a93.16,93.16,0,0,0-7,7.5c-13.8,16-35.6,29.8-54.6,34.5-18,4.5-45.4,2.4-65.7-4.8-28.8-10.3-53.2-32.3-67.6-61-15.6-31.2-19.5-75.8-9.6-110.2,11.2-38.8,38.1-68.8,74.1-82.6,15.8-6.1,27.4-8.1,46.8-8,14.1.1,18.3.5,24.9,2.2,16.5,4.5,32.8,14.2,46.8,27.8l6.8,6.6,24.3-17.8c13.3-9.7,25.1-18.6,26.2-19.6,2-1.9,1.9-2-10.6-14.2-28.2-27.5-59.1-41.7-98.8-45.6C1467.5,43.1,1448.6,42.9,1439.5,43.7Z" transform="translate(-0.3 -0.19)"/><path class="cls-2" d="M2071,43.6c-50.6,4.6-92.3,22.8-123.6,53.9-26.9,26.8-43.9,60.7-51.5,102.5-2.6,14.4-3.7,50.7-2,65.6,10.2,88.5,68.9,151,155.6,165.8,47.5,8.1,100.7.1,140.5-21.1,23.3-12.5,48.7-34.6,63.3-55.3,16.6-23.6,28.1-54.1,32.9-87.5,1.9-13.3,1.6-48.3-.5-62.8C2272.8,117.6,2215,59,2128.5,45.5,2118.8,44,2080.7,42.7,2071,43.6Zm35.8,61.4c27.4,3.5,51.2,14.5,70.1,32.5,18.6,17.7,29.5,36.9,36.2,63.2,7.2,28.5,5,64.9-5.6,92.4-11.6,30.1-32.1,53.6-58.5,66.9-19.1,9.6-35.6,13.4-59,13.4-18,0-29.9-1.9-44.2-7-36.2-12.9-63.6-42.7-75.7-82-5.4-17.7-6.5-25.9-6.5-47.9,0-21.6,1.3-30.3,6.9-47.2C1989.8,131.5,2045.1,97.3,2106.8,105Z" transform="translate(-0.3 -0.19)"/><path class="cls-2" d="M1640,239V425h225V364H1707V53h-67Z" transform="translate(-0.3 -0.19)"/><path class="cls-2" d="M2348.3,180.7c.4,139.7.1,131.9,6.3,153.6,14.2,49.8,53,85,106.4,96.5,29.8,6.5,63.9,4.7,92.1-4.7,50.4-16.9,82.8-54.6,93.1-108.2,2.1-11.2,2.1-13.1,2.5-138.2l.4-126.7H2581l-.2,125.2-.3,125.3-2.2,7.8c-8.7,30.5-28,49.8-56.8,56.8-13.4,3.3-34.3,3.1-47.7-.4-30.4-8-49.3-29.1-56.9-63.7-.9-4.1-1.3-36.9-1.6-128.3L2414.9,53h-67Z" transform="translate(-0.3 -0.19)"/><path class="cls-2" d="M2729,239V425.1l82.3-.3,82.2-.4,13.5-2.6c53.6-10.7,95.9-36,125-74.8,8.1-10.9,19.5-32.9,23.9-46.5,5.9-18,8.2-32,8.8-54.6,1.1-40.2-4.7-69-19.7-98.7-22.5-44.5-63.3-75.7-115.3-88.2-24-5.8-27.9-6-118.3-6H2729Zm157.9-123.6c33.4,5.1,55.8,14.9,74.6,32.7,16.1,15.3,25.9,34.6,31.2,61.4,2.7,14,2.4,45.5-.6,59.4-4.6,21.4-13.2,38.5-26.4,52.7-9.9,10.6-18.5,17-31.7,23.8-28.4,14.5-51.1,18.6-104.1,18.6H2796V112.7l40.3.6C2865.2,113.7,2879.4,114.3,2886.9,115.4Z" transform="translate(-0.3 -0.19)"/><path class="cls-2" d="M3132,239V425h45V258h173V216H3177V95h187V53H3132Z" transform="translate(-0.3 -0.19)"/><path class="cls-2" d="M3424,239V425h45V53h-45Z" transform="translate(-0.3 -0.19)"/><path class="cls-2" d="M3520,74V95h123V425h45V95h123V53H3520Z" transform="translate(-0.3 -0.19)"/><path class="cls-2" d="M1446.6,525.6c-13.9,3-24.9,10.7-30.1,21.1-2.7,5.3-3,6.7-3,16.3s.3,11,2.8,16.2a33.31,33.31,0,0,0,14.4,14.6c2.1,1.1,9.9,4.1,17.3,6.7,15,5.2,20.1,8,23,12.8,5.1,8.3-.3,19.7-10.8,22.7a30.66,30.66,0,0,1-30.2-8.1l-4.1-4.3-8.5,8.5c-4.6,4.6-8.4,8.9-8.4,9.6,0,1.8,9.7,9.2,15.7,12,16.9,7.8,41.8,6.6,56.4-2.8,11.5-7.4,17.5-20,16.7-35.3-1-18.4-9.6-27.2-35.3-35.6-12.9-4.2-18.6-7.1-22-11.2-2.4-2.8-2.7-3.8-2.3-8.5.8-9,7.9-14.2,19.4-14.3q11.55,0,19.2,6.6l4,3.4,7.9-8.5c4.3-4.7,7.8-9.1,7.8-9.7,0-1.9-8-7.5-13.9-9.7A65.6,65.6,0,0,0,1446.6,525.6Z" transform="translate(-0.3 -0.19)"/><path class="cls-2" d="M1650.9,525c-21.2,3.4-38.9,16-47.7,34-5.7,11.6-7.6,21.2-7,36.4,1,23.9,10.1,41,28.2,52.7,15.5,10.1,38.8,13.5,58.1,8.5,23.5-6.2,41.2-23.6,47.2-46.6,2.3-9,2.3-29.1-.1-38-6.2-23-22.7-39.7-45.1-45.5C1677.3,524.6,1658.7,523.8,1650.9,525Zm26.3,23c12.7,3.9,23.5,14.8,27.6,27.9,2.6,8.5,2.2,24.8-.8,32.6-4.7,12.1-11.2,19.5-21.8,24.7-5.5,2.8-7.8,3.3-15.7,3.6-14.9.7-25.7-3.6-34.5-13.5-7.5-8.5-11.1-19.1-11.2-32.4-.1-20.7,10.8-36.6,29.7-43.1C1657.4,545.4,1669.1,545.5,1677.2,548Z" transform="translate(-0.3 -0.19)"/><path class="cls-2" d="M1834,591.5V656h24V603h56V581h-56V549h59V527h-83Z" transform="translate(-0.3 -0.19)"/><path class="cls-2" d="M2006,538v11h40V656h23V549h39V527H2006Z" transform="translate(-0.3 -0.19)"/><path class="cls-2" d="M2190.3,528.2c.2.7,7.7,26,16.6,56.3s17.4,58.7,18.7,63.2l2.5,8.3h21.7l1.4-4.8c9.1-30.6,27.3-89.2,27.8-89.2s18.7,58.6,27.8,89.2l1.4,4.8h22.5l18.2-62.8c10-34.5,18.4-63.5,18.7-64.5.5-1.6-.3-1.7-11.7-1.5l-12.2.3-12,44.2c-6.7,24.4-12.4,44.3-12.7,44.3s-6.7-19.9-14.1-44.3l-13.5-44.2-11.6-.3-11.7-.3-1.4,4.8c-5.8,19.5-26.1,83.9-26.6,84.5-.3.4-5.3-17.4-11-39.5s-11.1-42.3-11.8-45l-1.4-4.7h-13C2192.8,527,2189.9,527.3,2190.3,528.2Z" transform="translate(-0.3 -0.19)"/><path class="cls-2" d="M2497.4,532.7c-3.8,8.5-52.6,120.6-53.1,122-.4,1,2.6,1.3,12.8,1.3h13.4l5.6-14.3,5.7-14.2,27.3-.3,27.4-.2,5.9,14.5,5.8,14.5h13.4c7.4,0,13.4-.3,13.4-.8s-12.3-29.3-27.4-64.2l-27.4-63.5-10.1-.3-10.2-.3Zm29.1,69.5,1.5,3.8h-37.8l4.8-12.3c2.6-6.7,6.8-17.8,9.5-24.6l4.8-12.4,7.9,20.9C2521.5,589.1,2525.7,600.2,2526.5,602.2Z" transform="translate(-0.3 -0.19)"/><path class="cls-2" d="M2670,591.4V656h24V602h15.5l14.6,26.7,14.6,26.8,14.2.3c7.7.1,14.1-.1,14.1-.5s-7.4-13.2-16.5-28.3l-16.4-27.4,5.9-1.8c15.3-4.7,24.2-19.2,22.7-36.8-1.5-17.3-9.8-26.6-28.2-31.6-4.7-1.3-12.5-1.7-35.2-2.1l-29.3-.6Zm60-40.4c5.9,3.3,8.2,7.7,7.7,14.8-.4,6.3-2.7,9.7-8.3,12.6-3.4,1.8-6.1,2.1-19.6,2.4l-15.8.4V547.8l15.8.4C2724.3,548.5,2725.8,548.7,2730,551Z" transform="translate(-0.3 -0.19)"/><path class="cls-2" d="M2865,591.5V656h89V634h-65V601h59V579h-59V549h62V527h-86Z" transform="translate(-0.3 -0.19)"/></svg>