<?xml version="1.0" encoding="utf-8"?>
<!-- Generator: Adobe Illustrator 23.0.6, SVG Export Plug-In . SVG Version: 6.00 Build 0)  -->
<svg version="1.1" id="Layer_1" xmlns="http://www.w3.org/2000/svg" xmlns:xlink="http://www.w3.org/1999/xlink" x="0px" y="0px"
	 viewBox="0 0 3811 722" style="enable-background:new 0 0 3811 722;" xml:space="preserve">
<style type="text/css">
	.st0{fill:#FFFFFF;}
</style>
<g transform="translate(0.000000,722.000000) scale(0.100000,-0.100000)">
	<path class="st0" d="M6233,7209c-352-21-675-87-978-200c-71-26-213-78-315-114c-1057-380-2091-890-2892-1427
		c-452-303-777-566-1119-908c-454-452-718-820-834-1165c-145-427-117-921,73-1300c170-342,500-645,1031-950c173-99,637-331,861-430
		c523-232,942-356,1422-421c155-21,673-30,865-15c204,17,474,54,687,95c98,20,180,37,183,39c2,2-52,60-119,128
		c-275,277-491,576-668,924c-70,138-175,383-168,391c2,2,43-44,92-101c123-145,441-455,621-605c341-285,727-564,860-622
		c270-119,674-251,1015-332c1291-308,2487-250,3403,165c535,242,966,599,1220,1009c200,324,309,743,277,1063
		c-111,1114-1006,2061-2114,2237c-295,47-627,24-1046-71c-505-116-819-262-1234-577c-209-158-522-478-966-984
		c-80-91-146-165-148-163c-7,6,50,260,87,390c114,396,301,762,504,984l40,43l-49,31c-81,50-282,153-394,201
		c-939,399-2078,356-3290-126c-169-67-607-277-740-354l-65-38l74,82c84,92,262,256,392,360c756,606,1801,952,2879,952
		c354,0,572-23,960-100c757-152,1345-140,1613,32c114,73,215,262,247,462c16,96,8,308-15,396c-27,105-106,257-170,327
		c-62,69-215,195-327,271c-370,249-818,390-1343,422C6458,7221,6426,7221,6233,7209z"/>
	<path class="st0" d="M14395,6783c-283-24-538-90-760-198c-562-271-924-795-1010-1458c-20-155-20-460,0-614
		c97-740,550-1299,1238-1528c238-79,432-109,712-109c561,1,992,187,1322,573c35,41,63,80,63,87c0,14-536,397-549,392
		c-4-2-36-36-70-75c-138-160-356-298-546-345c-180-45-454-24-657,48c-288,103-532,323-676,610c-156,312-195,758-96,1102
		c112,388,381,688,741,826c158,61,274,81,468,80c141-1,183-5,249-22c165-45,328-142,468-278l68-66l243,178c133,97,251,186,262,196
		c20,19,19,20-106,142c-282,275-591,417-988,456C14675,6789,14486,6791,14395,6783z"/>
	<path class="st0" d="M20710,6784c-506-46-923-228-1236-539c-269-268-439-607-515-1025c-26-144-37-507-20-656
		c102-885,689-1510,1556-1658c475-81,1007-1,1405,211c233,125,487,346,633,553c166,236,281,541,329,875c19,133,16,483-5,628
		c-129,871-707,1457-1572,1592C21188,6780,20807,6793,20710,6784z M21068,6170c274-35,512-145,701-325c186-177,295-369,362-632
		c72-285,50-649-56-924c-116-301-321-536-585-669c-191-96-356-134-590-134c-180,0-299,19-442,70c-362,129-636,427-757,820
		c-54,177-65,259-65,479c0,216,13,303,69,472C19898,5905,20451,6247,21068,6170z"/>
	<path class="st0" d="M16400,4830V2970h1125h1125v305v305h-790h-790v1555v1555h-335h-335V4830z"/>
	<path class="st0" d="M23483,5413c4-1397,1-1319,63-1536c142-498,530-850,1064-965c298-65,639-47,921,47c504,169,828,546,931,1082
		c21,112,21,131,25,1382l4,1267h-340h-341l-2-1252l-3-1253l-22-78c-87-305-280-498-568-568c-134-33-343-31-477,4
		c-304,80-493,291-569,637c-9,41-13,369-16,1283l-4,1227h-335h-335L23483,5413z"/>
	<path class="st0" d="M27290,4830V2969l823,3l822,4l135,26c536,107,959,360,1250,748c81,109,195,329,239,465c59,180,82,320,88,546
		c11,402-47,690-197,987c-225,445-633,757-1153,882c-240,58-279,60-1183,60h-824V4830z M28869,6066c334-51,558-149,746-327
		c161-153,259-346,312-614c27-140,24-455-6-594c-46-214-132-385-264-527c-99-106-185-170-317-238c-284-145-511-186-1041-186h-339
		v1256v1257l403-6C28652,6083,28794,6077,28869,6066z"/>
	<path class="st0" d="M31320,4830V2970h225h225v835v835h865h865v210v210h-865h-865v605v605h935h935v210v210h-1160h-1160V4830z"/>
	<path class="st0" d="M34240,4830V2970h225h225v1860v1860h-225h-225V4830z"/>
	<path class="st0" d="M35200,6480v-210h615h615V4620V2970h225h225v1650v1650h615h615v210v210h-1455h-1455V6480z"/>
	<path class="st0" d="M14466,1964c-139-30-249-107-301-211c-27-53-30-67-30-163c0-95,3-110,28-162c30-61,84-116,144-146
		c21-11,99-41,173-67c150-52,201-80,230-128c51-83-3-197-108-227c-109-30-224,1-302,81l-41,43l-85-85c-46-46-84-89-84-96
		c0-18,97-92,157-120c169-78,418-66,564,28c115,74,175,200,167,353c-10,184-96,272-353,356c-129,42-186,71-220,112
		c-24,28-27,38-23,85c8,90,79,142,194,143c77,0,141-22,192-66l40-34l79,85c43,47,78,91,78,97c0,19-80,75-139,97
		C14714,1981,14587,1989,14466,1964z"/>
	<path class="st0" d="M16509,1970c-212-34-389-160-477-340c-57-116-76-212-70-364c10-239,101-410,282-527c155-101,388-135,581-85
		c235,62,412,236,472,466c23,90,23,291-1,380c-62,230-227,397-451,455C16773,1974,16587,1982,16509,1970z M16772,1740
		c127-39,235-148,276-279c26-85,22-248-8-326c-47-121-112-195-218-247c-55-28-78-33-157-36c-149-7-257,36-345,135
		c-75,85-111,191-112,324c-1,207,108,366,297,431C16574,1766,16691,1765,16772,1740z"/>
	<path class="st0" d="M18340,1305V660h120h120v265v265h280h280v110v110h-280h-280v160v160h295h295v110v110h-415h-415V1305z"/>
	<path class="st0" d="M20060,1840v-110h200h200v-535V660h115h115v535v535h195h195v110v110h-510h-510V1840z"/>
	<path class="st0" d="M21903,1938c2-7,77-260,166-563c89-302,174-587,187-632l25-83h109h108l14,48c91,306,273,892,278,892
		s187-586,278-892l14-48h112h113l182,628c100,345,184,635,187,645c5,16-3,17-117,15l-122-3l-120-442c-67-244-124-443-127-443
		s-67,199-141,443l-135,442l-116,3l-117,3l-14-48c-58-195-261-839-266-845c-3-4-53,174-110,395c-58,221-111,423-118,450l-14,47h-130
		C21928,1950,21899,1947,21903,1938z"/>
	<path class="st0" d="M24974,1893c-38-85-526-1206-531-1220c-4-10,26-13,128-13h134l56,143l57,142l273,3l274,2l59-145l58-145h134
		c74,0,134,3,134,8c0,4-123,293-274,642l-274,635l-101,3l-102,3L24974,1893z M25265,1198l15-38h-189h-189l48,123
		c26,67,68,178,95,246l48,124l79-209C25215,1329,25257,1218,25265,1198z"/>
	<path class="st0" d="M26700,1306V660h120h120v270v270h78h77l146-267l146-268l142-3c77-1,141,1,141,5c0,5-74,132-165,283l-164,274
		l59,18c153,47,242,192,227,368c-15,173-98,266-282,316c-47,13-125,17-352,21l-293,6V1306z M27300,1710c59-33,82-77,77-148
		c-4-63-27-97-83-126c-34-18-61-21-196-24l-158-4v167v167l158-4C27243,1735,27258,1733,27300,1710z"/>
	<path class="st0" d="M28650,1305V660h445h445v110v110h-325h-325v165v165h295h295v110v110h-295h-295v150v150h310h310v110v110h-430
		h-430V1305z"/>
</g>
</svg>
