<?xml version="1.0" encoding="utf-8"?>
<!-- Generator: Adobe Illustrator 23.0.6, SVG Export Plug-In . SVG Version: 6.00 Build 0)  -->
<svg version="1.1" id="Layer_1" xmlns="http://www.w3.org/2000/svg" xmlns:xlink="http://www.w3.org/1999/xlink" x="0px" y="0px"
	 viewBox="0 0 500 500" style="enable-background:new 0 0 500 500;" xml:space="preserve">
<style type="text/css">
	.st0{clip-path:url(#XMLID_2_);fill:#26485F;}
	.st1{fill:#D6F4FF;}
	.st2{fill:#D3E2E7;}
	.st3{fill:#00B4B0;}
</style>
<g id="XMLID_102_">
	<defs>
		
			<ellipse id="XMLID_107_" transform="matrix(0.7071 -0.7071 0.7071 0.7071 -96.2692 246.7183)" cx="249.7" cy="239.6" rx="207.8" ry="207.8"/>
	</defs>
	<use xlink:href="#XMLID_107_"  style="overflow:visible;fill:#26485F;"/>
	<clipPath id="XMLID_2_">
		<use xlink:href="#XMLID_107_"  style="overflow:visible;"/>
	</clipPath>
	<path id="XMLID_144_" class="st0" d="M106.2,276.8h-3.3c0.3-1.4,0.5-2.8,0.5-4.2c0-10.6-8.6-19.1-19.1-19.1c-1.9,0-3.7,0.3-5.4,0.8
		c-3.2-6.2-9.6-10.5-17.1-10.5c-7.8,0-14.6,4.7-17.5,11.5c-2.5-1.1-5.2-1.8-8.1-1.8c-10.6,0-19.1,8.6-19.1,19.1
		c0,1.4,0.2,2.9,0.5,4.2h-2.8c-4.1,0-7.5,3.4-7.5,7.5c0,4.1,3.4,7.5,7.5,7.5h91.6c4.1,0,7.5-3.4,7.5-7.5
		C113.6,280.1,110.3,276.8,106.2,276.8z"/>
</g>
<path id="XMLID_93_" class="st1" d="M453.1,257.8h-14.6c1.3-7,2.1-14.3,2.1-21.8c0-54.8-37.7-99.2-84.3-99.2
	c-8.3,0-16.3,1.4-23.9,4.1c-13.9-32.2-42.3-54.3-75.1-54.3c-34.5,0-64.2,24.5-77.2,59.5c-10.8-5.9-22.9-9.3-35.6-9.3
	c-46.5,0-84.3,44.4-84.3,99.2c0,7.5,0.7,14.8,2.1,21.8H49.9c-18.1,0-32.9,17.4-32.9,38.7c0,21.3,14.8,38.7,32.9,38.7h403.2
	c18.1,0,32.9-17.4,32.9-38.7C486,275.3,471.2,257.8,453.1,257.8z"/>
<g id="XMLID_62_">
	<path id="XMLID_64_" class="st2" d="M339.7,291.2l-69.4-104.1c-5.9-8.8-18.9-8.8-24.8,0l-69.4,104.1c-6.6,9.9,0.5,23.1,12.4,23.1
		h34.4V386c0,5.4,4.4,9.8,9.8,9.8h50.4c5.4,0,9.8-4.4,9.8-9.8v-71.7h34.4C339.2,314.3,346.3,301.1,339.7,291.2z"/>
	<path id="XMLID_63_" class="st3" d="M333.2,291.2l-69.4-104.1c-5.9-8.8-18.9-8.8-24.8,0l-69.4,104.1c-6.6,9.9,0.5,23.1,12.4,23.1
		h34.4V386c0,5.4,4.4,9.8,9.8,9.8h50.4c5.4,0,9.8-4.4,9.8-9.8v-71.7h34.4C332.7,314.3,339.8,301.1,333.2,291.2z"/>
</g>
</svg>
