<?xml version="1.0" encoding="utf-8"?>
<!-- Generator: Adobe Illustrator 23.0.6, SVG Export Plug-In . SVG Version: 6.00 Build 0)  -->
<svg version="1.1" id="Layer_1" xmlns="http://www.w3.org/2000/svg" xmlns:xlink="http://www.w3.org/1999/xlink" x="0px" y="0px"
	 viewBox="0 0 500 500" style="enable-background:new 0 0 500 500;" xml:space="preserve">
<style type="text/css">
	.st0{fill:#CAE8FF;}
	.st1{fill:#E4E4E4;}
	.st2{fill:#575959;}
	.st3{fill:#0F0F0F;}
	.st4{fill:#FFFFFF;}
	.st5{fill:#B9B9B9;}
	.st6{fill:#FFC629;}
	.st7{fill:#F0A514;}
</style>
<g id="XMLID_422_">
	<circle class="st0" cx="210.5" cy="251.8" r="183.7"/>
</g>
<g id="XMLID_285_">
	<g id="XMLID_290_">
		<path id="XMLID_119_" class="st1" d="M394.2,340.2H77.5c-2.7,0-5-2.2-5-5V108c0-2.7,2.2-5,5-5h316.7c2.7,0,5,2.2,5,5v227.2
			C399.1,338,396.9,340.2,394.2,340.2z"/>
		<path id="XMLID_120_" class="st2" d="M390.7,347.3H81c-8.6,0-15.5-7-15.5-15.5V111.5c0-8.6,7-15.5,15.5-15.5h309.7
			c8.6,0,15.5,7,15.5,15.5v220.3C406.2,340.3,399.2,347.3,390.7,347.3z M81,110.1c-0.8,0-1.4,0.6-1.4,1.4v220.3
			c0,0.8,0.6,1.4,1.4,1.4h309.7c0.8,0,1.4-0.6,1.4-1.4V111.5c0-0.8-0.6-1.4-1.4-1.4H81z"/>
	</g>
	<g id="XMLID_289_">
		<path class="st3" d="M444.7,364.3H27c-3.1,0-5.6-2.5-5.6-5.6v-27c0-3.1,2.5-5.6,5.6-5.6h417.7c3.1,0,5.6,2.5,5.6,5.6v27
			C450.3,361.7,447.8,364.3,444.7,364.3z"/>
	</g>
	<g id="XMLID_288_">
		<path class="st4" d="M336.6,203.3v-7.4c0-9.4-12.4-17.1-27.6-17.1H157.4c-15.2,0-27.6,7.7-27.6,17.1v7.4
			c0,9.4,12.4,17.1,27.6,17.1h151.7c0.4,0,0.8,0,1.2,0c13.7,4.6,23.7,0,23.7,0c-3.9-1.1-6-2.7-7.1-4.1
			C332.8,213.2,336.6,208.5,336.6,203.3z"/>
	</g>
	<g id="XMLID_2_">
		<g id="XMLID_43_">
			<path class="st5" d="M165.7,210.8l-3-11l-3,11h-4.6l-5.3-19.4h4.6l3,11l3-11h4.6l3,11l3-11h4.6l-5.3,19.4H165.7z"/>
		</g>
		<g id="XMLID_111_">
			<path class="st5" d="M193.2,210.8l-3-11l-3,11h-4.6l-5.3-19.4h4.6l3,11l3-11h4.6l3,11l3-11h4.6l-5.3,19.4H193.2z"/>
		</g>
		<g id="XMLID_114_">
			<path class="st5" d="M220.8,210.8l-3-11l-3,11h-4.6l-5.3-19.4h4.6l3,11l3-11h4.6l3,11l3-11h4.6l-5.3,19.4H220.8z"/>
		</g>
		<g id="XMLID_117_">
			<path class="st5" d="M234.5,207.7c0.5,0,0.9,0.1,1.3,0.4c0.3,0.3,0.5,0.7,0.5,1.1c0,0.4-0.2,0.8-0.5,1.1
				c-0.3,0.3-0.8,0.4-1.3,0.4c-0.5,0-0.9-0.1-1.3-0.4c-0.3-0.3-0.5-0.7-0.5-1.1c0-0.4,0.2-0.8,0.5-1.1
				C233.6,207.8,234,207.7,234.5,207.7z"/>
		</g>
	</g>
</g>
<g id="XMLID_9_">
	<g id="XMLID_284_">
		<path class="st6" d="M489,161.2c0-57.4-45.9-104-102.5-104c-56.6,0-102.5,46.5-102.5,104c0,44.8,27.9,82.9,67,97.6v7.5
			c-2.3,0.2-4.1,2.1-4.1,4.4c0,1.6,0.9,3.1,2.2,3.8c-1.3,0.8-2.2,2.2-2.2,3.8c0,1.6,0.9,3.1,2.2,3.8c-1.3,0.8-2.2,2.2-2.2,3.8l0,0
			c0,1.5,0.7,2.7,1.8,3.5c-1.1,0.8-1.8,2.1-1.8,3.5l0,0c0,2.4,2,4.4,4.4,4.4h10.7v2.9c0,9.3,7.6,16.9,16.9,16.9h16.4
			c9.3,0,16.9-7.6,16.9-16.9v-2.9h10.7c2.4,0,4.4-2,4.4-4.4l0,0c0-1.5-0.7-2.7-1.8-3.5c1.1-0.8,1.8-2.1,1.8-3.5l0,0
			c0-1.6-0.9-3.1-2.2-3.8c1.3-0.8,2.2-2.2,2.2-3.8c0-1.6-0.9-3.1-2.2-3.8c1.3-0.8,2.2-2.2,2.2-3.8c0-2.4-2-4.4-4.4-4.4H422v-7.5
			C461.1,244.2,489,206,489,161.2z"/>
	</g>
	<g id="XMLID_283_">
		<path class="st4" d="M340.8,77.8c-15.2,8.2-29.1,20.8-33.1,38.3c-0.6,2.7,3.6,3.9,4.2,1.2c3.7-16.4,16.8-28,31.1-35.7
			C345.5,80.2,343.3,76.5,340.8,77.8z"/>
	</g>
	<g id="XMLID_105_">
		<path class="st4" d="M409.8,190.8c-2.6-6.1-10.8-10.2-16.6-5.7c-0.1,0.1-0.2,0.1-0.2,0.2c-2.2-2.8-5.4-4.7-9-2.6
			c-2.1,1.2-3.5,3.2-4.6,5.4c-0.1,0-0.2-0.1-0.3-0.1c-4.6-2.3-8.6,0-10,4.7c-1.5,4.9-0.6,10.3,1.2,15.1c1.8,4.9,4.6,9.3,7,14
			c2.5,5,4,10,4.2,15.6c0.3,5.9-0.6,12-0.9,18c-0.3,4.7-0.3,9.4,0.7,14c1.1,4.8,5.8,7.5,10.2,4.6c2.7-1.8,3.6-4.5,3.6-7.3
			c0.1-0.2,0.2-0.5,0.2-0.8c1-9.6-0.7-19.4,1-28.9c1.4-8.5,6.3-15.6,10.1-23.2C409.8,206.8,412.9,198.3,409.8,190.8z M406.2,202
			c-1.5,6.7-5.2,12.5-8.4,18.5c-3.3,6.2-5.6,12.4-6.3,19.4c-0.3,3.5-0.3,6.9-0.3,10.4c-0.8-0.6-2-0.8-3.3-0.6
			c-0.7,0.1-1.6,0.2-2.5,0.4c0.3-4.1,0.6-8.2,0.4-12.4c-0.1-4-0.7-8-2-11.8c-1.3-3.6-3.1-7-4.9-10.3c-2-3.6-4-7.2-5.2-11.1
			c-1-3.5-2-8.6,0-12c1.1-1.9,2.7-1.4,4.2-0.1c-0.2,0.8-0.4,1.6-0.5,2.4c-0.8,5.1,0,10.2,2,15c0.7,1.6,2.9,1.1,3.7,0
			c3.9-5.2,3.8-13.7-0.5-18.7c0.5-1.2,1.1-2.3,1.9-3.2c2.3-2.8,4.2-1,5.5,1.2c-1,2.1-1.4,4.5-1.6,6.9c-0.3,3.3,0.8,8,5,7.8
			c1,0,1.8-0.6,2.1-1.6c1.2-4.2,1-8.7-0.6-12.8c1-1.2,2.5-2,4.3-1.8C406.5,188.1,407.4,196.5,406.2,202z"/>
	</g>
	<g id="XMLID_18_">
		<path class="st7" d="M424.7,275.2h-76.4c-1.4,0-2.5-1.1-2.5-2.5v-5.5c0-1.4,1.1-2.5,2.5-2.5h76.4c1.4,0,2.5,1.1,2.5,2.5v5.5
			C427.3,274,426.1,275.2,424.7,275.2z"/>
	</g>
	<g id="XMLID_17_">
		<path class="st7" d="M424.7,291.1h-76.4c-1.4,0-2.5-1.1-2.5-2.5V284c0-1.4,1.1-2.5,2.5-2.5h76.4c1.4,0,2.5,1.1,2.5,2.5v4.6
			C427.3,290,426.1,291.1,424.7,291.1z"/>
	</g>
</g>
</svg>
